<?xml version="1.0" encoding="UTF-8" standalone="no"?>
<!DOCTYPE svg PUBLIC "-//W3C//DTD SVG 1.1//EN" "http://www.w3.org/Graphics/SVG/1.1/DTD/svg11.dtd">
<svg width="192" height="238" viewBox="0 0 192 238" version="1.1" xmlns="http://www.w3.org/2000/svg" xmlns:xlink="http://www.w3.org/1999/xlink" xml:space="preserve" style="fill-rule:evenodd;clip-rule:evenodd;stroke-linejoin:round;stroke-miterlimit:1.41421;">
    <g transform="matrix(0.5,0,0,0.5,-143.346,-268.051)">
        <g transform="matrix(2.66667,0,0,2.66667,-234.589,-127.491)">
            <rect x="265.98" y="248.86" width="3" height="151.18" style="fill:white;fill-rule:nonzero;"/>
        </g>
        <g transform="matrix(2.66667,0,0,2.66667,-234.589,-5.54423)">
            <rect x="196.98" y="222.5" width="141" height="45" style="fill:rgb(120,101,161);fill-rule:nonzero;"/>
        </g>
        <g transform="matrix(2.66667,0,0,2.66667,-234.589,-5.54423)">
            <path d="M339.48,269L195.48,269L195.48,221L339.48,221C339.48,237 339.48,253 339.48,269ZM198.48,224L198.48,266L336.48,266L336.48,224C290.48,224 244.48,224 198.48,224Z" style="fill:white;fill-rule:nonzero;"/>
        </g>
        <g transform="matrix(2.66667,0,0,2.66667,-234.589,-5.54423)">
            <rect x="196.98" y="278.72" width="141" height="45" style="fill:rgb(120,101,161);fill-rule:nonzero;"/>
        </g>
        <g transform="matrix(2.66667,0,0,2.66667,-234.589,-5.54423)">
            <path d="M339.48,325.22L195.48,325.22L195.48,277.22L339.48,277.22C339.48,293.22 339.48,309.22 339.48,325.22ZM198.48,280.22L198.48,322.22L336.48,322.22L336.48,280.22C290.48,280.22 244.48,280.22 198.48,280.22Z" style="fill:white;fill-rule:nonzero;"/>
        </g>
        <g transform="matrix(2.66667,0,0,2.66667,-234.589,-5.54423)">
            <rect x="196.98" y="334.88" width="141" height="45" style="fill:rgb(120,101,161);fill-rule:nonzero;"/>
        </g>
        <g transform="matrix(2.66667,0,0,2.66667,-234.589,-5.54423)">
            <path d="M339.48,381.38L195.48,381.38L195.48,333.38L339.48,333.38C339.48,349.38 339.48,365.38 339.48,381.38ZM198.48,336.38L198.48,378.38L336.48,378.38L336.48,336.38C290.48,336.38 244.48,336.38 198.48,336.38Z" style="fill:white;fill-rule:nonzero;"/>
        </g>
        <g transform="matrix(2.66667,0,0,2.66667,-234.589,-5.54423)">
            <path d="M237.286,249.158C237.286,247.466 236.386,246.602 235.036,246.17C236.044,245.72 236.836,244.892 236.836,243.542C236.836,241.526 235.432,240.32 232.606,240.32L228.376,240.32L228.376,252.74L232.534,252.74C235.486,252.74 237.286,251.552 237.286,249.158ZM234.082,243.884C234.082,244.784 233.47,245.342 232.318,245.342L231.292,245.342L231.292,242.534L232.39,242.534C233.578,242.534 234.082,243.056 234.082,243.884ZM234.388,248.942C234.388,250.004 233.668,250.526 232.426,250.526L231.292,250.526L231.292,247.322L232.39,247.322C233.704,247.322 234.388,247.88 234.388,248.942Z" style="fill:white;fill-rule:nonzero;"/>
            <path d="M249.31,247.808L249.31,240.32L246.214,240.32L246.214,247.844C246.214,249.428 245.512,250.346 244.108,250.346C242.722,250.346 242.002,249.41 242.002,247.808L242.002,240.32L238.906,240.32L238.906,247.826C238.906,251.3 241.03,252.938 244.072,252.938C247.078,252.938 249.31,251.264 249.31,247.808Z" style="fill:white;fill-rule:nonzero;"/>
            <rect x="251.506" y="240.32" width="3.078" height="12.42" style="fill:white;fill-rule:nonzero;"/>
            <path d="M264.232,252.74L263.818,250.076L260.002,250.076L260.002,240.32L256.924,240.32L256.924,252.74L264.232,252.74Z" style="fill:white;fill-rule:nonzero;"/>
            <path d="M276.562,246.512C276.562,242.822 274.312,240.32 269.992,240.32L265.708,240.32L265.708,252.74L270.064,252.74C274.258,252.74 276.562,250.202 276.562,246.512ZM273.466,246.53C273.466,249.194 272.098,250.346 269.902,250.346L268.786,250.346L268.786,242.714L269.902,242.714C272.008,242.714 273.466,243.92 273.466,246.53Z" style="fill:white;fill-rule:nonzero;"/>
            <rect x="278.47" y="240.32" width="3.078" height="12.42" style="fill:white;fill-rule:nonzero;"/>
            <path d="M294.31,252.74L294.31,240.32L291.448,240.32L291.448,247.268L286.876,240.32L283.888,240.32L283.888,252.74L286.75,252.74L286.75,245.306L291.646,252.74L294.31,252.74Z" style="fill:white;fill-rule:nonzero;"/>
            <path d="M306.784,251.66L306.784,245.612L301.582,245.612L301.942,247.898L304.102,247.898L304.102,250.112C303.598,250.364 303.112,250.508 302.428,250.508C300.286,250.508 299.206,248.87 299.206,246.53C299.206,244.208 300.25,242.624 302.392,242.624C303.67,242.624 304.768,243.092 305.704,243.686L306.118,241.004C305.128,240.446 303.85,240.086 302.32,240.086C298.486,240.086 296.128,242.696 296.128,246.548C296.128,250.382 298.306,252.974 302.248,252.974C303.958,252.974 305.488,252.506 306.784,251.66Z" style="fill:white;fill-rule:nonzero;"/>
        </g>
        <g transform="matrix(2.66667,0,0,2.66667,-234.589,-5.54423)">
            <path d="M259.452,298.894L259.452,296.32L252.018,296.32L252.018,308.74L255.078,308.74L255.078,304.006L258.75,304.006L258.318,301.432L255.078,301.432L255.078,298.894L259.452,298.894Z" style="fill:white;fill-rule:nonzero;"/>
            <path d="M272.304,302.512C272.304,298.678 269.982,296.086 266.382,296.086C262.782,296.086 260.442,298.696 260.442,302.548C260.442,306.382 262.782,308.974 266.346,308.974C269.964,308.974 272.304,306.346 272.304,302.512ZM269.208,302.53C269.208,304.996 268.164,306.562 266.364,306.562C264.582,306.562 263.52,304.996 263.52,302.53C263.52,300.064 264.582,298.498 266.364,298.498C268.164,298.498 269.208,300.064 269.208,302.53Z" style="fill:white;fill-rule:nonzero;"/>
            <path d="M283.932,308.344L280.89,303.772C282.366,303.142 283.23,301.972 283.23,300.244C283.23,297.688 281.466,296.32 278.46,296.32L274.122,296.32L274.122,308.74L277.182,308.74L277.182,304.474L277.956,304.474L280.674,308.866L283.932,308.344ZM280.206,300.424C280.206,301.612 279.45,302.26 278.118,302.26L277.164,302.26L277.164,298.642L278.154,298.642C279.486,298.642 280.206,299.272 280.206,300.424Z" style="fill:white;fill-rule:nonzero;"/>
        </g>
        <g transform="matrix(2.66667,0,0,2.66667,-234.589,-5.54423)">
            <path d="M219.448,363.66L219.448,357.612L214.246,357.612L214.606,359.898L216.766,359.898L216.766,362.112C216.262,362.364 215.776,362.508 215.092,362.508C212.95,362.508 211.87,360.87 211.87,358.53C211.87,356.208 212.914,354.624 215.056,354.624C216.334,354.624 217.432,355.092 218.368,355.686L218.782,353.004C217.792,352.446 216.514,352.086 214.984,352.086C211.15,352.086 208.792,354.696 208.792,358.548C208.792,362.382 210.97,364.974 214.912,364.974C216.622,364.974 218.152,364.506 219.448,363.66Z" style="fill:white;fill-rule:nonzero;"/>
            <path d="M229.42,364.74L229.42,362.238L224.542,362.238L224.542,359.61L228.538,359.61L228.142,357.144L224.542,357.144L224.542,354.804L229.258,354.804L229.258,352.32L221.518,352.32L221.518,364.74L229.42,364.74Z" style="fill:white;fill-rule:nonzero;"/>
            <path d="M241.588,364.74L241.588,352.32L238.726,352.32L238.726,359.268L234.154,352.32L231.166,352.32L231.166,364.74L234.028,364.74L234.028,357.306L238.924,364.74L241.588,364.74Z" style="fill:white;fill-rule:nonzero;"/>
            <path d="M251.758,364.74L251.758,362.238L246.88,362.238L246.88,359.61L250.876,359.61L250.48,357.144L246.88,357.144L246.88,354.804L251.596,354.804L251.596,352.32L243.856,352.32L243.856,364.74L251.758,364.74Z" style="fill:white;fill-rule:nonzero;"/>
            <path d="M263.314,364.344L260.272,359.772C261.748,359.142 262.612,357.972 262.612,356.244C262.612,353.688 260.848,352.32 257.842,352.32L253.504,352.32L253.504,364.74L256.564,364.74L256.564,360.474L257.338,360.474L260.056,364.866L263.314,364.344ZM259.588,356.424C259.588,357.612 258.832,358.26 257.5,358.26L256.546,358.26L256.546,354.642L257.536,354.642C258.868,354.642 259.588,355.272 259.588,356.424Z" style="fill:white;fill-rule:nonzero;"/>
            <path d="M263.566,364.74L266.59,364.74L267.418,362.166L271.702,362.166L272.62,364.866L275.734,364.362L271.414,352.266L268.03,352.266L263.566,364.74ZM269.56,355.434L270.946,359.754L268.156,359.754L269.56,355.434Z" style="fill:white;fill-rule:nonzero;"/>
            <path d="M285.238,354.93L284.806,352.32L274.978,352.32L274.978,354.93L278.488,354.93L278.488,364.74L281.584,364.74L281.584,354.93L285.238,354.93Z" style="fill:white;fill-rule:nonzero;"/>
            <rect x="286.696" y="352.32" width="3.078" height="12.42" style="fill:white;fill-rule:nonzero;"/>
            <path d="M303.526,358.512C303.526,354.678 301.204,352.086 297.604,352.086C294.004,352.086 291.664,354.696 291.664,358.548C291.664,362.382 294.004,364.974 297.568,364.974C301.186,364.974 303.526,362.346 303.526,358.512ZM300.43,358.53C300.43,360.996 299.386,362.562 297.586,362.562C295.804,362.562 294.742,360.996 294.742,358.53C294.742,356.064 295.804,354.498 297.586,354.498C299.386,354.498 300.43,356.064 300.43,358.53Z" style="fill:white;fill-rule:nonzero;"/>
            <path d="M315.766,364.74L315.766,352.32L312.904,352.32L312.904,359.268L308.332,352.32L305.344,352.32L305.344,364.74L308.206,364.74L308.206,357.306L313.102,364.74L315.766,364.74Z" style="fill:white;fill-rule:nonzero;"/>
            <path d="M326.314,360.996C326.314,359.016 325.252,358.08 322.534,357.09C320.986,356.496 320.644,356.19 320.644,355.56C320.644,354.984 321.094,354.588 322.03,354.588C322.984,354.588 324.154,354.948 325.27,355.596L325.738,353.004C324.658,352.482 323.614,352.176 321.994,352.176C319.618,352.176 317.746,353.454 317.746,355.848C317.746,357.9 318.826,358.71 321.31,359.664C323.056,360.33 323.416,360.654 323.416,361.356C323.416,362.094 322.804,362.472 321.922,362.472C320.68,362.472 319.258,362.004 317.98,361.32L317.53,363.948C318.79,364.524 320.194,364.884 321.868,364.884C324.334,364.884 326.314,363.696 326.314,360.996Z" style="fill:white;fill-rule:nonzero;"/>
        </g>
    </g>
</svg>
